<?xml version="1.0"?><svg version="1.2" baseProfile="tiny-ps" viewBox="0 0 300 300" xmlns="http://www.w3.org/2000/svg" xmlns:xlink="http://www.w3.org/1999/xlink"><title>Bulle de savon</title><g><g fill="#feffff" transform="matrix(.1 0 0 -.1 0 300)"><path d="M0 1500V0h3000v3000H0V1500z"/></g><g fill="#cee6f3" transform="matrix(.1 0 0 -.1 0 300)"><path d="M1315 2733c-168-13-292-46-430-115l-100-49-93-71-92-70-66-77c-179-206-255-386-285-671l-11-115 16-113 17-114 35-105 34-106 41-77c79-149 211-304 293-347l28-15h44c48 0 154 21 168 33l8 7-39 21c-62 31-175 126-233 194-103 120-167 244-210 402l-22 80-5 140-5 140 20 95c60 291 244 531 509 665 274 138 581 137 870-1l72-34 80-61 80-60 63-74c110-127 183-278 214-440l14-70v-230l-14-70c-7-38-24-100-36-138-13-37-21-69-19-71s40-6 84-7l79-4 28 105 28 105 6 130 6 130-10 85c-37 295-196 563-442 749-84 63-223 138-316 169-109 37-304 64-409 55zm379-511-40-19-37-44-37-43-11-40-11-41 4-52 5-52 29-48 30-47 48-30 48-30 62-4 62-4 45 21c54 26 89 60 119 119l22 42-4 70-4 69-30 43-30 42-42 31-43 30-72 3-72 3-41-19zm154-116c13-7 32-26 43-42l19-29v-28c0-15-7-41-15-56l-14-28-37-18-36-17-33 6-33 7-31 35-31 35v64l19 29c24 37 57 55 96 55 17 0 40-5 53-13zM594 1558c-12-5-26-20-32-33l-11-23 24-94 23-95 27-54c63-125 151-225 261-295l57-36 38-5 39-6 15 13 15 12v65l-17 15c-10 8-44 30-77 49l-58 34-60 64-59 65-34 70c-19 39-40 94-46 121-6 28-15 66-20 86l-9 36-25 11c-14 7-27 12-28 11-1 0-12-5-23-11zm1541-458c-218-31-434-118-730-296-199-119-284-158-442-200l-98-27-147-5-147-4-78 17c-43 9-104 25-135 35-56 18-191 82-216 102-7 6-15 8-19 5-16-16 177-219 290-304 121-91 278-163 434-197l72-16h249l78 16c184 37 392 130 639 284 224 140 404 221 570 255l70 15h223l78-16c44-9 87-20 96-25l17-9 5 9 5 8-55 61c-30 34-89 89-132 123l-77 62-70 34c-39 18-102 42-140 53l-70 20-105 4-105 5-60-9z"/></g><g fill="#94c7e5" transform="matrix(.1 0 0 -.1 0 300)"><path d="M1230 2720c-197-26-357-92-527-218l-78-58-69-75-69-74-59-90-58-90-39-100-39-100-18-85-18-85v-320l22-86c54-218 147-391 292-543l65-68 37-19 37-19h43c24 1 66 6 95 13l51 12-1 10c-1 5-33 31-72 56l-70 47-71 74-71 73-51 78-51 78-31 82c-18 45-40 113-50 152l-18 70-7 95-7 95 11 84c30 237 115 415 275 576 83 84 165 141 279 196l82 39 80 21 80 21 125 5 125 5 89-16c117-23 228-64 327-123l82-48 68-63c37-35 91-91 118-126l50-62 46-92 46-91 24-96 25-96 6-92 6-92-16-102-15-103-25-72c-13-40-22-75-19-78 2-3 39-5 80-5h76l19 65c10 36 25 110 33 165 42 286-16 549-174 785l-56 85-82 82-82 81-84 56c-46 31-123 74-171 97l-87 40-97 25-97 25-125 4-125 4-65-9zm463-505-51-26-28-36c-35-46-53-97-53-148l-1-40 21-45c35-79 99-130 182-145l36-7 50 12 50 12 46 40c25 22 53 54 62 72l17 31v70l1 70-17 31c-24 44-77 94-123 115l-40 19h-101l-51-25zm183-129 34-34v-92l-29-32-29-33h-114l-29 33-29 32v92l34 34 34 34h94l34-34zM577 1542c-22-24-21-42 3-138l20-79 40-81 40-82 70-75 71-76 65-41c35-22 78-43 94-47l31-6 19 18 20 18v47l-17 15c-10 9-52 38-93 65l-75 49-49 58-49 58-33 71-33 70-13 69-12 69-18 18-18 18h-47l-16-18zm1584-444c-218-22-436-108-754-297-172-102-239-135-346-171-110-37-202-56-312-64l-87-7-85 11c-47 6-120 19-162 30l-77 20-97 47c-53 26-100 49-104 51l-9 4 13-23c6-13 56-69 110-125l99-101 78-56c143-103 319-175 481-198l76-11 115 6 115 6 96 24c169 44 329 119 579 274 255 157 402 220 605 258l90 16 90-5c83-5 205-26 248-42l17-7v9c0 15-132 146-197 196-78 59-141 93-227 122l-71 24-65 6c-36 3-81 7-100 9s-73-1-119-6z"/></g><g fill="#54a4d5" transform="matrix(.1 0 0 -.1 0 300)"><path d="m1219 2715-96-13-91-31c-142-47-242-103-369-204l-65-52-77-91c-162-195-235-370-261-629l-12-110 7-75c18-213 96-422 226-603l63-88 55-51c89-81 121-90 242-62l69 16-76 49-77 50-73 75c-128 131-206 271-255 460l-24 89v155l1 155 23 90 23 90 43 90c130 271 381 467 678 530l68 15h258l68-15c227-48 418-164 559-339l65-81 49-100 49-100 23-90 22-90v-140l1-140-19-80c-10-44-27-101-37-126l-18-46 77-5 77-5 7 11c14 22 48 182 59 281l11 100-7 75c-27 300-134 531-337 726-98 94-185 154-310 214l-104 50-80 19c-91 23-228 41-294 40-25-1-88-7-141-14zm521-484c-93-30-156-99-173-189l-7-33 11-49 10-49 33-43 33-43 48-24 48-24h102l40 17c50 21 80 49 113 105l26 44v61l-1 61-17 35c-25 48-64 88-109 111l-38 20-47 4-47 4-25-8zm126-128c12-8 30-30 39-50l17-35-6-31c-9-42-36-74-81-93l-37-15-32 11-33 10-25 28c-30 32-39 64-31 104l6 29 28 29c42 42 104 47 155 13zM585 1546l-19-14 1-41c1-23 14-81 28-129l27-87 30-54c17-29 53-80 80-113l50-59 61-46c34-25 82-55 106-65l44-20 24 11 24 11-3 37-3 37-60 35-60 35-71 71-71 72-37 74-36 74-15 75-15 75-21 18c-26 21-39 21-64 3zm1491-462c-44-8-127-30-185-49l-106-36-137-69c-76-38-201-108-279-155l-142-84-101-40c-118-46-189-65-305-82l-84-12-106 6-106 6-100 25-100 26-97 48-97 48 32-40c52-67 187-198 262-254l70-52 100-50 100-50 98-25 98-25 92-6 92-6 115 16 115 17 90 30c127 42 279 119 510 258l200 121 106 45c58 24 143 54 190 65l84 21 105 6 106 6 97-17c53-9 108-21 122-26l26-10-10 19c-16 30-174 175-235 215-70 46-143 80-221 102l-60 16-130 4-130 3-79-15z"/></g><g fill="#0f89c9" transform="matrix(.1 0 0 -.1 0 300)"><path d="M1178 2706c-348-62-665-310-817-639-48-103-67-166-86-282l-15-90v-223l16-82c44-233 173-475 332-622l61-56 37-12 37-13 56 13c31 7 67 16 81 20l25 7-35 18c-82 42-208 157-285 259-20 28-57 89-81 138l-44 87-24 85-25 84-11 102-11 101 11 97c22 180 64 303 153 439l44 69 79 80 79 80 76 51 75 50 88 36 87 37 82 17 82 18 135-1h135l90-22 90-22 111-55 111-55 69-58c37-31 98-92 135-135l68-78 50-102 50-102 23-80 22-80v-350l-22-79c-13-43-29-91-38-107l-15-29h160l16 57c9 31 23 95 32 142l15 86-5 150-5 150-22 85-22 85-44 94c-146 311-414 534-749 622l-80 21-150 4-150 3-77-13zm511-504-54-28-32-54-33-54v-111l19-40c23-49 74-99 123-119l37-16h97l51 25 51 26 25 37c36 52 47 85 47 142v49l-12 28c-7 15-23 42-36 60l-24 32-51 26-51 25h-104l-53-28zm161-85c13-7 35-28 47-46l23-34v-62l-20-32-19-32-30-16c-38-19-74-19-112 0l-30 16-19 32-20 32v28c0 15 7 41 15 58l16 30 32 19 32 20h30c17 0 41-6 55-13zM580 1535l-13-15 7-50c10-77 44-178 83-250l36-65 86-86 86-86 64-31 63-32 20 11c24 13 32 33 24 63l-6 25-61 32-60 33-56 54c-30 30-73 82-94 115l-39 61-19 60c-10 34-22 81-26 106s-12 51-17 58l-10 12h-56l-12-15zm1558-445c-207-26-445-123-733-298-173-105-298-161-456-204l-84-22H690l-175-1-100 28-100 27-88 45-88 44 40-47c60-73 189-194 261-246 114-84 260-148 414-183l71-16h110l110-1 75 13c41 7 120 28 176 46l100 33 105 52c57 29 181 99 276 156 258 156 381 214 535 251l73 18h160l160-1 60-16c32-10 61-16 63-14 7 7-137 145-199 191-83 61-160 100-248 124l-71 20-102 5-103 5-67-9z"/></g></g></svg>