<?xml version="1.0" standalone="no"?>
<!DOCTYPE svg PUBLIC "-//W3C//DTD SVG 20010904//EN"
 "http://www.w3.org/TR/2001/REC-SVG-20010904/DTD/svg10.dtd">
<svg version="1.0" xmlns="http://www.w3.org/2000/svg"
 width="300.000000pt" height="300.000000pt" viewBox="0 0 300.000000 300.000000"
 preserveAspectRatio="xMidYMid meet">
<metadata>
Created by potrace 1.10, written by Peter Selinger 2001-2011
</metadata>
<g transform="translate(0.000000,300.000000) scale(0.100000,-0.100000)"
fill="#000000" stroke="none">
<path d="M830 2652 c0 -6 33 -10 79 -9 72 2 82 0 106 -23 15 -14 32 -34 37
-44 9 -17 67 -694 68 -794 0 -32 4 -35 83 -72 l84 -38 6 -69 c12 -121 15 -114
-69 -172 l-76 -53 6 -47 c16 -127 57 -759 51 -788 -13 -69 -94 -133 -170 -133
-19 0 -35 -4 -35 -10 0 -17 561 -13 664 5 279 49 478 219 542 466 24 91 22
235 -5 319 -28 88 -84 181 -155 258 l-60 64 -240 -6 c-133 -4 -280 -9 -327
-12 l-86 -5 -11 92 c-6 51 -10 94 -9 94 1 1 160 16 352 34 398 37 365 27 417
138 64 135 59 350 -12 498 -38 80 -138 186 -215 227 -28 15 -91 39 -140 54
l-90 28 -397 4 c-257 2 -398 0 -398 -6z m790 -41 c81 -16 193 -57 245 -89 153
-96 234 -274 221 -485 -7 -105 -23 -161 -61 -218 -23 -36 -25 -37 -117 -47
-51 -7 -192 -21 -313 -32 -121 -11 -237 -24 -258 -29 -33 -7 -46 -4 -105 26
-37 20 -68 36 -70 38 -2 2 -25 277 -42 510 -14 207 -20 255 -32 294 -7 24 -7
35 1 40 20 12 461 5 531 -8z m409 -1197 c28 -32 51 -63 51 -70 0 -7 4 -14 8
-16 15 -6 69 -112 83 -163 18 -64 17 -225 0 -290 -53 -190 -206 -345 -404
-407 -72 -23 -74 -23 -147 -33 -57 -8 -419 -10 -426 -2 -2 2 7 25 22 51 30 54
32 97 16 301 -6 72 -14 171 -17 220 -3 50 -8 119 -11 155 -2 36 -6 91 -9 123
-2 32 -2 64 1 72 3 8 31 33 62 57 l57 43 170 5 c94 3 242 6 331 8 l161 3 52
-57z"/>
<path d="M765 2535 c1 -58 5 -108 8 -112 4 -3 -3 -17 -13 -31 -26 -32 -25 -72
0 -105 13 -16 16 -28 10 -32 -16 -10 -11 -54 9 -74 25 -25 34 -153 13 -195
-16 -33 -10 -81 14 -107 10 -11 12 -19 5 -24 -16 -9 -13 -51 4 -69 22 -22 19
-69 -6 -84 -18 -12 -21 -20 -16 -57 5 -31 2 -46 -8 -55 -19 -16 -19 -80 -1
-105 8 -12 11 -34 8 -62 -4 -40 -2 -44 24 -55 26 -12 29 -18 29 -60 0 -26 -6
-53 -12 -59 -18 -18 -16 -89 3 -110 12 -13 13 -22 5 -38 -13 -24 0 -65 23 -74
13 -5 14 -11 5 -31 -7 -16 -8 -30 -2 -41 7 -12 4 -28 -10 -54 -22 -40 -19 -78
9 -106 13 -12 14 -19 5 -28 -18 -18 -13 -55 12 -74 20 -15 22 -21 14 -44 -8
-21 -7 -33 6 -53 10 -15 17 -45 17 -74 0 -27 3 -64 6 -81 6 -26 11 -31 36 -31
23 0 28 4 25 18 -3 9 -8 60 -11 112 -4 52 -11 147 -16 210 -6 63 -28 345 -50
625 -22 281 -54 672 -70 870 -17 199 -30 369 -30 378 0 11 -8 17 -23 17 -24 0
-24 -1 -22 -105z m95 -1014 c6 -73 8 -136 5 -139 -11 -11 -28 19 -37 65 -5 26
-11 60 -15 76 -3 15 1 42 8 59 7 18 12 46 10 63 -2 21 1 27 8 20 5 -6 15 -70
21 -144z m29 -348 c1 -35 -13 -44 -23 -17 -8 22 -8 69 1 78 10 10 21 -22 22
-61z m19 -350 l-4 -28 -14 28 c-11 23 -11 31 0 55 l14 27 4 -27 c2 -16 2 -40
0 -55z"/>
</g>
</svg>
